<?xml version="1.0" standalone="no"?>
<!DOCTYPE svg PUBLIC "-//W3C//DTD SVG 20010904//EN"
 "http://www.w3.org/TR/2001/REC-SVG-20010904/DTD/svg10.dtd">
<svg version="1.0" xmlns="http://www.w3.org/2000/svg"
 width="128.000000pt" height="128.000000pt" viewBox="0 0 128.000000 128.000000"
 preserveAspectRatio="xMidYMid meet">
<metadata>
Created by potrace 1.14, written by Peter Selinger 2001-2017
</metadata>
<g transform="translate(0.000000,128.000000) scale(0.100000,-0.100000)"
fill="#000000" stroke="none">
<path d="M627 1243 c-1 -1 -26 -3 -55 -4 -28 -2 -52 -5 -53 -8 -1 -6 -4 -25
-14 -78 -3 -18 -9 -32 -13 -31 -24 6 -133 -61 -177 -109 -31 -34 -55 -63 -55
-68 0 -2 -13 -26 -28 -52 -71 -123 -78 -321 -17 -473 36 -88 104 -176 175
-225 36 -25 38 -29 29 -53 -13 -33 -20 -58 -26 -97 l-4 -30 21 25 c11 14 30
44 41 67 l21 42 41 -16 c94 -33 266 -9 373 53 118 68 206 204 230 355 8 54 2
194 -9 206 -4 3 -7 15 -7 26 0 35 -67 160 -115 214 -52 58 -117 102 -190 129
-27 9 -51 18 -52 19 -1 0 4 23 12 50 8 26 13 51 10 54 -5 5 -134 9 -138 4z"/>
</g>
</svg>
